<svg width="369" height="45" viewBox="0 0 369 45" fill="none" xmlns="http://www.w3.org/2000/svg">
<path fill-rule="evenodd" clip-rule="evenodd" d="M187.495 17.893C185.899 21.1798 183.068 23.0317 179.116 23.4405C180.681 24.4025 183.149 26.3425 181.157 31.1926C181.157 31.2487 178.737 37.229 177.931 39.121C177.378 40.4732 176.954 41.8743 176.665 43.3056H166.23C166.23 43.3056 168.205 37.8143 170.689 32.5153C171.73 30.3187 171.907 28.6513 171.246 27.561C170.697 26.8098 169.839 26.3421 168.907 26.2864H163.391L155.544 43.2896H145.254L165.746 0H185.544C187.487 0 190.044 0.737526 191.35 2.81382C192.221 4.21673 192.834 6.72592 190.834 10.8304C190.818 10.8785 188.802 15.2155 187.495 17.893ZM174.036 19.0554C175.818 19.0554 177.157 18.1255 178.028 16.2977L179.1 14.0691L180.899 10.3174C181.423 9.20305 181.536 8.34527 181.221 7.83221C180.969 7.49641 180.578 7.29056 180.157 7.27105H172.302L166.859 19.0554H174.036Z" fill="white"/>
<path fill-rule="evenodd" clip-rule="evenodd" d="M78.3239 17.861C76.7121 21.1478 73.8996 22.9996 69.9508 23.4165C71.5142 24.3785 73.9883 26.3185 71.9897 31.1926C71.9897 31.2487 69.5721 37.229 68.7662 39.121C68.2149 40.4731 67.7939 41.8743 67.509 43.3056H57.081C57.081 43.3056 59.0554 37.8143 61.5375 32.5153C62.5771 30.3187 62.7624 28.6513 62.0935 27.561C61.5454 26.8098 60.688 26.3421 59.7565 26.2864H54.2362L46.3951 43.2896H36.0879L56.5652 0H76.3737C78.3239 0 80.8785 0.737526 82.184 2.78176C83.0544 4.18466 83.6669 6.69385 81.6683 10.7983C81.6647 10.8055 81.6164 10.9089 81.5327 11.0883C81.0568 12.1077 79.434 15.5842 78.3239 17.861ZM64.8819 18.9913C66.6548 18.9913 67.9926 18.1015 68.8629 16.2657L69.9347 14.005L71.7318 10.2532C72.2556 9.13891 72.3685 8.28114 72.0542 7.76808C71.8017 7.43228 71.4115 7.22642 70.9904 7.20691H63.3024L57.7096 18.9913H64.8819Z" fill="white"/>
<path fill-rule="evenodd" clip-rule="evenodd" d="M111.981 0C117.227 0 121.349 3.37671 117.708 11.1529L114.14 18.7343C113.81 19.4366 113.482 20.1346 113.157 20.8265C110.482 26.5238 108.002 31.8042 106.157 35.6259C103.07 42.0384 99.1353 44.2869 91.1442 44.2057H83.1695C79.2839 44.2057 71.3498 42.3388 76.6528 31.2184L81.9313 20.1304C84.4321 14.9436 86.5907 10.398 87.8859 7.63819C90.2971 2.50007 94.0441 0 99.3552 0H111.981ZM96.7486 32.3953L107.338 9.91909C108.226 8.04404 107.257 7.4515 106.173 7.5002H100.471C99.0701 7.5002 97.9949 7.93852 96.9604 10.1301C95.4371 13.3445 87.9918 29.3352 86.216 33.1502C84.9941 35.8045 86.6233 36.0237 87.4379 36.0237H92.0158C94.3048 36.0237 95.2742 35.4961 96.7486 32.3953Z" fill="white"/>
<path d="M135.186 19.7511L131.755 27.0556H137.192L134.134 33.6865C133.244 35.61 132.637 35.9996 130.541 35.9996H125.136C123.517 35.9996 122.951 35.188 123.922 33.1265C125.152 30.5131 134.862 10.174 134.862 10.174C135.962 7.86089 136.618 7.5119 138.317 7.5119H143.901C145.252 7.5119 145.98 8.13684 145.074 9.94675C144.872 10.3444 142.646 15.2222 142.646 15.2222L152.494 15.2953L154.736 10.4662C158.013 3.40512 155.084 0.101847 148.303 0.00445303H137.605C132.395 -0.132004 127.612 2.8778 125.467 7.64176C123.517 11.8053 114.317 31.2192 114.317 31.2192C110.95 38.3208 112.901 44.205 122.109 44.205H130.331C136.901 44.27 140.13 43.2392 143.132 36.6489L150.795 19.8079L135.186 19.7511Z" fill="white"/>
<path d="M283.293 0L262.541 43.3056H273.235L294.118 0H283.293Z" fill="white"/>
<path d="M319.985 0L296.038 38.1557L308.153 0H297.063L286.9 43.3056H301.208L331.108 0H319.985Z" fill="white"/>
<path d="M237.637 28.3039L236.736 12.2768C236.629 10.3455 237.113 7.72508 240.726 7.72508H247.986L251.714 0H239.342C229.509 0 226.232 5.85792 226.584 12.7416C226.814 16.9487 227.404 30.6359 227.404 30.6359C227.551 33.9375 226.256 35.444 223.102 35.444H214.826L211.115 43.3053H224.306C233.057 43.3534 238.211 37.7679 237.637 28.3039Z" fill="white"/>
<path d="M261.919 12.2769C261.812 10.3456 262.298 7.72513 265.93 7.72513H273.228L276.975 0H264.538C256.367 0 251.244 4.34338 251.713 12.7417C251.952 16.9488 252.537 30.6361 252.537 30.6361C252.693 33.9377 251.392 35.4443 248.213 35.4443H240.108L236.376 43.3056H249.424C259.093 43.3056 263.327 36.5742 262.816 28.256L261.919 12.2769Z" fill="white"/>
<path d="M201.606 23.9063H214.823L218.213 16.6887H204.949L209.169 7.69076H222.86L226.452 0H202.597L182.245 43.3056H208.017L211.73 35.4545H196.097L201.606 23.9063Z" fill="white"/>
<path d="M314.868 43.3056H340.645L344.391 35.461H328.723L334.233 23.9107H347.452L350.843 16.6918H337.576L341.797 7.69218H355.491L359.076 0H335.224L314.868 43.3056Z" fill="white"/>
<path fill-rule="evenodd" clip-rule="evenodd" d="M45.6578 10.9786C43.6939 15.2386 41.9664 18.9062 41.0945 20.6759C38.3809 26.1772 34.9014 28.1871 28.2438 28.139H17.8459L10.6749 43.3056H0L20.535 0H40.3203C44.8429 0.0160154 49.1048 3.48335 45.6578 10.9786ZM32.033 17.9613C32.196 17.6329 33.6627 14.6381 35.5859 10.6342C36.9386 7.83153 35.8874 7.10283 34.4124 7.09482H27.6978L21.3662 20.5718H28.0645C29.9306 20.5718 31.1692 19.771 32.033 17.9613Z" fill="white"/>
<path fill-rule="evenodd" clip-rule="evenodd" d="M366.812 1.98487C367.061 2.15376 367.207 2.44935 367.195 2.76138C367.195 3.47196 366.722 3.73568 366.116 3.75034L367.146 5.41325H366.652L365.671 3.75034H364.906V5.41325H364.489V1.80905H365.977C366.266 1.78645 366.554 1.84725 366.812 1.98487ZM364.92 3.40603H365.56C365.599 3.40603 365.64 3.4066 365.682 3.40718C366.146 3.41357 366.772 3.42221 366.791 2.71743C366.791 2.16068 366.325 2.09475 365.901 2.09475H364.92V3.40603Z" fill="white"/>
<path fill-rule="evenodd" clip-rule="evenodd" d="M362.926 2.84818C363.417 1.6676 364.571 0.899328 365.849 0.90223C367.588 0.906176 368.996 2.31438 369 4.05271C369.003 5.33116 368.235 6.48521 367.054 6.9758C365.873 7.46638 364.514 7.19668 363.61 6.29268C362.706 5.38867 362.436 4.02877 362.926 2.84818ZM363.094 4.04564C363.086 5.57667 364.318 6.82532 365.849 6.83719V6.84436C366.591 6.85011 367.304 6.55906 367.83 6.03604C368.356 5.51301 368.65 4.80146 368.648 4.05989C368.648 2.52884 367.409 1.2866 365.878 1.28268C364.347 1.27875 363.102 2.51462 363.094 4.04564Z" fill="white"/>
</svg>
