<svg width="209" height="37" viewBox="0 0 209 37" fill="none" xmlns="http://www.w3.org/2000/svg">
<path d="M54.8523 13.5881V10.5455H69.1875V13.5881H63.8438V28H60.196V13.5881H54.8523ZM68.6527 28V14.9091H72.1726V17.1932H72.309C72.5476 16.3807 72.9454 15.767 73.5022 15.3523C74.0647 14.9318 74.7152 14.7216 75.4539 14.7216C75.8061 14.7216 76.1329 14.7642 76.434 14.8494C76.7351 14.9347 77.005 15.0511 77.2436 15.1989L76.1527 18.1989C75.9823 18.1136 75.7948 18.0426 75.5902 17.9858C75.3914 17.9233 75.1669 17.892 74.9169 17.892C74.184 17.892 73.5618 18.142 73.0505 18.642C72.5448 19.142 72.2891 19.7926 72.2834 20.5938V28H68.6527ZM80.8318 28.2472C79.5818 28.2472 78.5448 27.9205 77.721 27.267C76.8971 26.6136 76.4852 25.6392 76.4852 24.3438C76.4852 23.3665 76.7153 22.5994 77.1755 22.0426C77.6357 21.4858 78.238 21.0795 78.9823 20.8239C79.7323 20.5625 80.5391 20.392 81.4028 20.3125C82.5391 20.1989 83.3516 20.0795 83.8403 19.9545C84.3289 19.8295 84.5732 19.5568 84.5732 19.1364V19.0852C84.5732 18.5455 84.4028 18.1278 84.0619 17.8324C83.7266 17.5369 83.2494 17.3892 82.6301 17.3892C81.9766 17.3892 81.4568 17.5312 81.0704 17.8153C80.684 18.0994 80.4283 18.4602 80.3033 18.8977L76.9454 18.625C77.1954 17.4318 77.8147 16.4858 78.8033 15.7869C79.7977 15.0881 81.0789 14.7386 82.6471 14.7386C83.6187 14.7386 84.5278 14.892 85.3744 15.1989C86.221 15.5057 86.9028 15.9858 87.4198 16.6392C87.9426 17.2869 88.2039 18.1307 88.2039 19.1705V28H84.7607V26.1847H84.6585C84.3403 26.7926 83.863 27.2898 83.2266 27.6761C82.596 28.0568 81.7977 28.2472 80.8318 28.2472ZM81.8715 25.7415C82.667 25.7415 83.3204 25.5114 83.8318 25.0511C84.3431 24.5852 84.5988 24.0085 84.5988 23.321V21.9318C84.4568 22.0284 84.2352 22.1136 83.934 22.1875C83.6386 22.2614 83.3204 22.3267 82.9795 22.3835C82.6443 22.4347 82.3431 22.4801 82.0761 22.5199C81.4397 22.6108 80.9255 22.7898 80.5335 23.0568C80.1471 23.3239 79.9539 23.7131 79.9539 24.2244C79.9539 24.7244 80.1329 25.1023 80.4908 25.358C80.8545 25.6136 81.3147 25.7415 81.8715 25.7415ZM95.4674 28.2557C94.1265 28.2557 92.9731 27.9716 92.0072 27.4034C91.047 26.8295 90.3084 26.0341 89.7913 25.017C89.2799 24 89.0243 22.8295 89.0243 21.5057C89.0243 20.1648 89.2828 18.9886 89.7998 17.9773C90.3226 16.9602 91.064 16.1676 92.0243 15.5994C92.9845 15.0256 94.1265 14.7386 95.4504 14.7386C96.5924 14.7386 97.5924 14.946 98.4504 15.3608C99.314 15.7756 99.993 16.358 100.487 17.108C100.987 17.858 101.263 18.7386 101.314 19.75H97.8879C97.7913 19.0966 97.5356 18.571 97.1209 18.1733C96.7118 17.7699 96.1748 17.5682 95.5101 17.5682C94.6692 17.5682 93.993 17.9062 93.4817 18.5824C92.9703 19.2585 92.7146 20.2159 92.7146 21.4545C92.7146 22.7045 92.9674 23.6733 93.4731 24.3608C93.9845 25.0426 94.6635 25.3835 95.5101 25.3835C96.1351 25.3835 96.6606 25.196 97.0868 24.821C97.5129 24.4403 97.7799 23.9006 97.8879 23.2017H101.314C101.257 24.2017 100.984 25.0824 100.496 25.8438C100.013 26.6051 99.3453 27.1989 98.493 27.625C97.6407 28.0455 96.6322 28.2557 95.4674 28.2557ZM109.134 14.9091V17.6364H106.671V23.9773C106.671 24.4773 106.784 24.8153 107.012 24.9915C107.239 25.1676 107.534 25.2557 107.898 25.2557C108.068 25.2557 108.239 25.2415 108.409 25.2131C108.58 25.179 108.71 25.1534 108.801 25.1364L109.372 27.8381C109.19 27.8949 108.935 27.9602 108.605 28.0341C108.276 28.1136 107.875 28.1619 107.404 28.179C106.085 28.2358 105.026 27.9517 104.225 27.3267C103.429 26.696 103.034 25.7386 103.04 24.4545V17.6364H101.25V14.9091H103.04V11.7727H106.671V14.9091H109.134ZM115.805 28.2557C114.481 28.2557 113.336 27.9744 112.37 27.4119C111.41 26.8437 110.669 26.054 110.146 25.0426C109.623 24.0256 109.362 22.8466 109.362 21.5057C109.362 20.1534 109.623 18.9716 110.146 17.9602C110.669 16.9432 111.41 16.1534 112.37 15.5909C113.336 15.0227 114.481 14.7386 115.805 14.7386C117.129 14.7386 118.271 15.0227 119.231 15.5909C120.197 16.1534 120.941 16.9432 121.464 17.9602C121.987 18.9716 122.248 20.1534 122.248 21.5057C122.248 22.8466 121.987 24.0256 121.464 25.0426C120.941 26.054 120.197 26.8437 119.231 27.4119C118.271 27.9744 117.129 28.2557 115.805 28.2557ZM115.822 25.4432C116.72 25.4432 117.399 25.0682 117.859 24.3182C118.325 23.5682 118.558 22.6222 118.558 21.4801C118.558 20.3381 118.325 19.392 117.859 18.642C117.399 17.8864 116.72 17.5085 115.822 17.5085C114.907 17.5085 114.217 17.8864 113.751 18.642C113.285 19.392 113.052 20.3381 113.052 21.4801C113.052 22.6222 113.285 23.5682 113.751 24.3182C114.217 25.0682 114.907 25.4432 115.822 25.4432ZM123.141 28V14.9091H126.661V17.1932H126.797C127.036 16.3807 127.433 15.767 127.99 15.3523C128.553 14.9318 129.203 14.7216 129.942 14.7216C130.294 14.7216 130.621 14.7642 130.922 14.8494C131.223 14.9347 131.493 15.0511 131.732 15.1989L130.641 18.1989C130.47 18.1136 130.283 18.0426 130.078 17.9858C129.88 17.9233 129.655 17.892 129.405 17.892C128.672 17.892 128.05 18.142 127.539 18.642C127.033 19.142 126.777 19.7926 126.772 20.5938V28H123.141Z" fill="white"/>
<path d="M143.208 14.9091V17.6364H140.608V28H136.978V17.6364H135.128V14.9091H136.978V13.9631C136.978 12.5369 137.384 11.4744 138.196 10.7756C139.015 10.0767 140.04 9.72727 141.273 9.72727C141.83 9.72727 142.338 9.76989 142.799 9.85511C143.265 9.94034 143.611 10.017 143.838 10.0852L143.199 12.8125C143.057 12.767 142.881 12.7244 142.671 12.6847C142.461 12.6449 142.247 12.625 142.032 12.625C141.497 12.625 141.125 12.75 140.915 13C140.711 13.2443 140.608 13.5881 140.608 14.0312V14.9091H143.208ZM149.402 28.2557C148.078 28.2557 146.933 27.9744 145.967 27.4119C145.007 26.8437 144.265 26.054 143.743 25.0426C143.22 24.0256 142.958 22.8466 142.958 21.5057C142.958 20.1534 143.22 18.9716 143.743 17.9602C144.265 16.9432 145.007 16.1534 145.967 15.5909C146.933 15.0227 148.078 14.7386 149.402 14.7386C150.726 14.7386 151.868 15.0227 152.828 15.5909C153.794 16.1534 154.538 16.9432 155.061 17.9602C155.583 18.9716 155.845 20.1534 155.845 21.5057C155.845 22.8466 155.583 24.0256 155.061 25.0426C154.538 26.054 153.794 26.8437 152.828 27.4119C151.868 27.9744 150.726 28.2557 149.402 28.2557ZM149.419 25.4432C150.316 25.4432 150.995 25.0682 151.456 24.3182C151.922 23.5682 152.154 22.6222 152.154 21.4801C152.154 20.3381 151.922 19.392 151.456 18.642C150.995 17.8864 150.316 17.5085 149.419 17.5085C148.504 17.5085 147.814 17.8864 147.348 18.642C146.882 19.392 146.649 20.3381 146.649 21.4801C146.649 22.6222 146.882 23.5682 147.348 24.3182C147.814 25.0682 148.504 25.4432 149.419 25.4432ZM156.738 28V14.9091H160.257V17.1932H160.394C160.632 16.3807 161.03 15.767 161.587 15.3523C162.15 14.9318 162.8 14.7216 163.539 14.7216C163.891 14.7216 164.218 14.7642 164.519 14.8494C164.82 14.9347 165.09 15.0511 165.329 15.1989L164.238 18.1989C164.067 18.1136 163.88 18.0426 163.675 17.9858C163.476 17.9233 163.252 17.892 163.002 17.892C162.269 17.892 161.647 18.142 161.135 18.642C160.63 19.142 160.374 19.7926 160.368 20.5938V28H156.738ZM173.276 20.4318V28H169.645V10.5455H173.174V17.2188H173.327C173.628 16.446 174.106 15.8409 174.759 15.4034C175.418 14.9602 176.245 14.7386 177.239 14.7386C178.603 14.7386 179.699 15.1761 180.529 16.0511C181.358 16.9261 181.77 18.1307 181.765 19.6648V28H178.134V20.3125C178.14 19.5057 177.935 18.8778 177.52 18.429C177.111 17.9801 176.537 17.7557 175.799 17.7557C175.06 17.7557 174.455 17.9915 173.983 18.4631C173.518 18.929 173.282 19.5852 173.276 20.4318ZM183.154 28V14.9091H186.785V28H183.154ZM184.978 13.2216C184.444 13.2216 183.983 13.0426 183.597 12.6847C183.211 12.321 183.018 11.8864 183.018 11.3807C183.018 10.875 183.211 10.4432 183.597 10.0852C183.983 9.72727 184.444 9.54829 184.978 9.54829C185.518 9.54829 185.981 9.72727 186.367 10.0852C186.753 10.4432 186.947 10.875 186.947 11.3807C186.947 11.8864 186.753 12.321 186.367 12.6847C185.981 13.0426 185.518 13.2216 184.978 13.2216ZM188.225 28V14.9091H191.745V17.1932H191.881C192.12 16.3807 192.518 15.767 193.074 15.3523C193.637 14.9318 194.287 14.7216 195.026 14.7216C195.378 14.7216 195.705 14.7642 196.006 14.8494C196.307 14.9347 196.577 15.0511 196.816 15.1989L195.725 18.1989C195.555 18.1136 195.367 18.0426 195.162 17.9858C194.964 17.9233 194.739 17.892 194.489 17.892C193.756 17.892 193.134 18.142 192.623 18.642C192.117 19.142 191.861 19.7926 191.856 20.5938V28H188.225ZM202.403 28.2557C201.062 28.2557 199.905 27.983 198.934 27.4375C197.962 26.8864 197.215 26.108 196.692 25.1023C196.17 24.0909 195.908 22.8949 195.908 21.5142C195.908 20.1676 196.17 18.9858 196.692 17.9688C197.215 16.9517 197.951 16.1591 198.9 15.5909C199.854 15.0227 200.974 14.7386 202.258 14.7386C203.411 14.7386 204.451 14.983 205.377 15.4716C206.309 15.9602 207.047 16.6989 207.593 17.6875C208.138 18.6705 208.411 19.9034 208.411 21.3864V22.3835H199.496V22.392C199.496 23.3693 199.763 24.1392 200.297 24.7017C200.832 25.2642 201.553 25.5455 202.462 25.5455C203.07 25.5455 203.596 25.4176 204.039 25.1619C204.482 24.9062 204.795 24.5284 204.976 24.0284L208.334 24.25C208.079 25.4659 207.431 26.4375 206.391 27.1648C205.351 27.892 204.022 28.2557 202.403 28.2557ZM199.496 20.1335H204.993C204.988 19.3551 204.738 18.7131 204.243 18.2074C203.749 17.7017 203.107 17.4489 202.317 17.4489C201.511 17.4489 200.849 17.7102 200.332 18.233C199.815 18.7557 199.536 19.3892 199.496 20.1335Z" fill="#31A14A"/>
<path d="M0 32.3077C0 31.9254 0.305899 31.6154 0.683308 31.6154H4.63982C1.06624 29.4372 -0.702767 25.1646 0.267461 21.0553C1.23769 16.946 4.72366 13.9471 8.88332 13.6431V12.2308H7.51663C7.1393 12.2308 6.83332 11.9209 6.83332 11.5385C6.83332 11.1561 7.13922 10.8462 7.51663 10.8462H10.9333C11.234 10.8462 11.5346 10.8591 11.8353 10.885H11.8421L11.3112 8.4446C11.2579 8.20275 11.3361 7.95044 11.5165 7.78307C11.6968 7.6157 11.9517 7.55867 12.1848 7.63363C12.418 7.70851 12.5938 7.90404 12.6458 8.14613L13.2908 11.1092C14.9801 11.4851 16.5566 12.2635 17.8896 13.38C18.6869 14.0491 19.3884 14.8272 19.9738 15.6923H22.55V13.6153C22.55 13.233 22.8559 12.923 23.2334 12.923H32.1167V7.38456H30.75C30.3726 7.38456 30.0667 7.07465 30.0667 6.69228C30.0667 6.30992 30.3726 6 30.75 6H32.8C33.1774 6 33.4833 6.30992 33.4833 6.69228V12.923H37.5833C38.3372 12.9253 38.9478 13.5439 38.95 14.3077V24.1801C40.1202 25.0037 40.866 26.3138 40.9837 27.7525C41.1014 29.1912 40.5785 30.6079 39.5582 31.6154H40.3167C40.694 31.6154 41 31.9254 41 32.3077C41 32.6901 40.6941 33 40.3167 33H0.683308C0.305899 33 0 32.6901 0 32.3077ZM32.8001 22.6154C33.1774 22.6154 33.4834 22.3055 33.4834 21.9231C33.4834 21.5408 33.1775 21.2308 32.8001 21.2308H26.6501C26.2727 21.2308 25.9667 21.5407 25.9667 21.9231C25.9667 22.3054 26.2726 22.6154 26.6501 22.6154H32.8001ZM32.8001 19.8462C33.1774 19.8462 33.4834 19.5363 33.4834 19.1539C33.4834 18.7715 33.1775 18.4616 32.8001 18.4616H26.6501C26.2727 18.4616 25.9667 18.7715 25.9667 19.1539C25.9667 19.5363 26.2726 19.8462 26.6501 19.8462H32.8001ZM38.2667 28.1539C38.2667 27.0068 37.3489 26.077 36.2167 26.077C35.0845 26.077 34.1667 27.0068 34.1667 28.1539C34.1667 29.301 35.0845 30.2308 36.2167 30.2308C37.3475 30.2274 38.2633 29.2995 38.2667 28.1539ZM23.9167 16.3846C23.9167 16.767 23.6108 17.077 23.2334 17.0769H35.5334C35.9108 17.0769 36.2167 16.767 36.2167 16.3846C36.2167 16.0023 35.9108 15.6923 35.5334 15.6923H23.9167V16.3846ZM19.598 17.077C19.3812 17.0775 19.1775 16.9718 19.0514 16.7931C19.9991 18.3319 20.501 20.1094 20.5001 21.9231C20.5001 22.3054 20.8061 22.6154 21.1834 22.6154C21.5608 22.6154 21.8667 22.3055 21.8667 21.9231C21.8687 20.244 21.4924 18.5866 20.7665 17.077H19.598ZM18.9146 25.3847C18.3431 27.9863 16.7456 30.2376 14.4935 31.6154H32.8752C31.2007 29.9634 30.9547 27.3251 32.2944 25.3847H18.9146ZM13.6666 23.3077C13.6666 21.0136 11.831 19.1539 9.56663 19.1539C7.30226 19.1539 5.46662 21.0136 5.46662 23.3077C5.46662 25.6019 7.30226 27.4616 9.56663 27.4616C11.831 27.4616 13.6666 25.6019 13.6666 23.3077ZM2.73331 23.3077C2.73331 23.69 3.03921 24 3.41662 24C3.79403 24 4.09993 23.6901 4.09993 23.3077C4.10409 20.2506 6.5492 17.7735 9.56663 17.7693C9.94396 17.7693 10.2499 17.4593 10.2499 17.077C10.2499 16.6947 9.94404 16.3847 9.56663 16.3847C5.79518 16.3908 2.73932 19.4868 2.73331 23.3077ZM4.45532 27.4616C4.59177 27.4632 4.72542 27.4221 4.83793 27.344C4.98856 27.2412 5.09266 27.0821 5.12725 26.9016C5.16185 26.721 5.12413 26.534 5.02243 26.3816C4.89198 26.1836 4.77339 25.9778 4.66712 25.7654C4.49904 25.4234 4.0892 25.2839 3.75143 25.4539C3.41566 25.6293 3.27921 26.044 3.44393 26.3885C3.57614 26.6537 3.72452 26.9104 3.88812 27.1569C4.01641 27.3466 4.22837 27.4605 4.45532 27.4616ZM40.3077 34C40.6901 34 41 34.2238 41 34.5C41 34.7762 40.6901 35 40.3077 35H32.6923C32.3099 35 32 34.7762 32 34.5C32 34.2238 32.3099 34 32.6923 34H40.3077ZM0.688864 35C0.308386 35 0 34.7762 0 34.5C0 34.2238 0.308386 34 0.688864 34H30.3111C30.6916 34 31 34.2238 31 34.5C31 34.7762 30.6916 35 30.3111 35H0.688864ZM30.3 36C30.6866 36 31 36.2238 31 36.5C31 36.7762 30.6866 37 30.3 37H10.7C10.3134 37 10 36.7762 10 36.5C10 36.2238 10.3134 36 10.7 36H30.3ZM9.5 26C8.11929 26 7 24.8807 7 23.5C7 22.1193 8.11929 21 9.5 21C10.8807 21 12 22.1193 12 23.5C12 24.8807 10.8807 26 9.5 26ZM36 29C35.4477 29 35 28.5523 35 28C35 27.4477 35.4477 27 36 27C36.5523 27 37 27.4477 37 28C37 28.5523 36.5523 29 36 29ZM22.3399 5.77578C21.3683 5.27386 20.8299 4.04816 21.0483 2.83555C21.2668 1.62295 22.1828 0.753596 23.2454 0.750168C23.4656 0.749817 23.6847 0.786736 23.8958 0.859694C24.7313 -0.0127321 25.9242 -0.242859 26.9563 0.269257C27.9883 0.781374 28.6732 1.94326 28.7134 3.25027C29.5002 3.68539 30.0012 4.61047 30 5.62582C30 6.0401 29.712 6.37589 29.3567 6.37589C29.0014 6.37589 28.7135 6.0401 28.7135 5.62582C28.7153 5.0825 28.3827 4.61583 27.9242 4.5187C27.752 4.48248 27.5998 4.36601 27.5028 4.19619C27.4057 4.02618 27.3723 3.81733 27.4102 3.61788C27.4232 3.53806 27.4289 3.45684 27.4269 3.37562C27.4269 2.87827 27.2575 2.40123 26.9559 2.04962C26.6543 1.69801 26.2452 1.50041 25.8187 1.50041C25.3285 1.49927 24.8652 1.76227 24.5637 2.21303C24.3654 2.51251 24.0069 2.59294 23.7274 2.40053C23.5815 2.30041 23.4149 2.24854 23.2456 2.25048C22.7127 2.25048 22.2807 2.75424 22.2807 3.37562C22.2807 3.997 22.7127 4.50077 23.2456 4.50077C23.4879 4.50208 23.709 4.66198 23.8177 4.91443C23.9264 5.16697 23.9042 5.46927 23.7603 5.6965C23.6351 5.89304 23.5675 6.13126 23.5673 6.37606C23.5673 6.99744 23.9993 7.50121 24.5322 7.50121C25.0651 7.50121 25.4972 6.99744 25.4972 6.37606C25.4973 6.29985 25.4899 6.22382 25.4753 6.14954C25.4201 5.8708 25.4987 5.57906 25.6807 5.38726C25.8626 5.19545 26.1194 5.13357 26.3517 5.22569C26.5839 5.31773 26.7552 5.54935 26.7992 5.83072C26.8824 6.36534 27.2826 6.75325 27.7487 6.75105C28.104 6.75105 28.3919 7.08693 28.3919 7.50112C28.3919 7.91531 28.104 8.25119 27.7487 8.25119C27.2802 8.25189 26.8233 8.08224 26.4415 7.76588C25.9093 8.75882 24.8774 9.22075 23.9121 8.89823C22.9468 8.57572 22.2813 7.54683 22.2807 6.37589C22.2803 6.1738 22.3002 5.97242 22.3399 5.77578Z" fill="url(#paint0_linear)"/>
<defs>
<linearGradient id="paint0_linear" x1="41" y1="0" x2="0" y2="0" gradientUnits="userSpaceOnUse">
<stop stop-color="#31A14A"/>
<stop offset="1" stop-color="#147939"/>
</linearGradient>
</defs>
</svg>
