<svg width="41" height="37" viewBox="0 0 41 37" fill="none" xmlns="http://www.w3.org/2000/svg">
<path d="M0 32.3077C0 31.9254 0.305899 31.6154 0.683308 31.6154H4.63982C1.06624 29.4372 -0.702767 25.1646 0.267461 21.0553C1.23769 16.946 4.72366 13.9471 8.88332 13.6431V12.2308H7.51663C7.1393 12.2308 6.83332 11.9209 6.83332 11.5385C6.83332 11.1561 7.13922 10.8462 7.51663 10.8462H10.9333C11.234 10.8462 11.5346 10.8591 11.8353 10.885H11.8421L11.3112 8.4446C11.2579 8.20275 11.3361 7.95044 11.5165 7.78307C11.6968 7.6157 11.9517 7.55867 12.1848 7.63363C12.418 7.70851 12.5938 7.90404 12.6458 8.14613L13.2908 11.1092C14.9801 11.4851 16.5566 12.2635 17.8896 13.38C18.6869 14.0491 19.3884 14.8272 19.9738 15.6923H22.55V13.6153C22.55 13.233 22.8559 12.923 23.2334 12.923H32.1167V7.38456H30.75C30.3726 7.38456 30.0667 7.07465 30.0667 6.69228C30.0667 6.30992 30.3726 6 30.75 6H32.8C33.1774 6 33.4833 6.30992 33.4833 6.69228V12.923H37.5833C38.3372 12.9253 38.9478 13.5439 38.95 14.3077V24.1801C40.1202 25.0037 40.866 26.3138 40.9837 27.7525C41.1014 29.1912 40.5785 30.6079 39.5582 31.6154H40.3167C40.694 31.6154 41 31.9254 41 32.3077C41 32.6901 40.6941 33 40.3167 33H0.683308C0.305899 33 0 32.6901 0 32.3077ZM32.8001 22.6154C33.1774 22.6154 33.4834 22.3055 33.4834 21.9231C33.4834 21.5408 33.1775 21.2308 32.8001 21.2308H26.6501C26.2727 21.2308 25.9667 21.5407 25.9667 21.9231C25.9667 22.3054 26.2726 22.6154 26.6501 22.6154H32.8001ZM32.8001 19.8462C33.1774 19.8462 33.4834 19.5363 33.4834 19.1539C33.4834 18.7715 33.1775 18.4616 32.8001 18.4616H26.6501C26.2727 18.4616 25.9667 18.7715 25.9667 19.1539C25.9667 19.5363 26.2726 19.8462 26.6501 19.8462H32.8001ZM38.2667 28.1539C38.2667 27.0068 37.3489 26.077 36.2167 26.077C35.0845 26.077 34.1667 27.0068 34.1667 28.1539C34.1667 29.301 35.0845 30.2308 36.2167 30.2308C37.3475 30.2274 38.2633 29.2995 38.2667 28.1539ZM23.9167 16.3846C23.9167 16.767 23.6108 17.077 23.2334 17.0769H35.5334C35.9108 17.0769 36.2167 16.767 36.2167 16.3846C36.2167 16.0023 35.9108 15.6923 35.5334 15.6923H23.9167V16.3846ZM19.598 17.077C19.3812 17.0775 19.1775 16.9718 19.0514 16.7931C19.9991 18.3319 20.501 20.1094 20.5001 21.9231C20.5001 22.3054 20.8061 22.6154 21.1834 22.6154C21.5608 22.6154 21.8667 22.3055 21.8667 21.9231C21.8687 20.244 21.4924 18.5866 20.7665 17.077H19.598ZM18.9146 25.3847C18.3431 27.9863 16.7456 30.2376 14.4935 31.6154H32.8752C31.2007 29.9634 30.9547 27.3251 32.2944 25.3847H18.9146ZM13.6666 23.3077C13.6666 21.0136 11.831 19.1539 9.56663 19.1539C7.30226 19.1539 5.46662 21.0136 5.46662 23.3077C5.46662 25.6019 7.30226 27.4616 9.56663 27.4616C11.831 27.4616 13.6666 25.6019 13.6666 23.3077ZM2.73331 23.3077C2.73331 23.69 3.03921 24 3.41662 24C3.79403 24 4.09993 23.6901 4.09993 23.3077C4.10409 20.2506 6.5492 17.7735 9.56663 17.7693C9.94396 17.7693 10.2499 17.4593 10.2499 17.077C10.2499 16.6947 9.94404 16.3847 9.56663 16.3847C5.79518 16.3908 2.73932 19.4868 2.73331 23.3077ZM4.45532 27.4616C4.59177 27.4632 4.72542 27.4221 4.83793 27.344C4.98856 27.2412 5.09266 27.0821 5.12725 26.9016C5.16185 26.721 5.12413 26.534 5.02243 26.3816C4.89198 26.1836 4.77339 25.9778 4.66712 25.7654C4.49904 25.4234 4.0892 25.2839 3.75143 25.4539C3.41566 25.6293 3.27921 26.044 3.44393 26.3885C3.57614 26.6537 3.72452 26.9104 3.88812 27.1569C4.01641 27.3466 4.22837 27.4605 4.45532 27.4616ZM40.3077 34C40.6901 34 41 34.2238 41 34.5C41 34.7762 40.6901 35 40.3077 35H32.6923C32.3099 35 32 34.7762 32 34.5C32 34.2238 32.3099 34 32.6923 34H40.3077ZM0.688864 35C0.308386 35 0 34.7762 0 34.5C0 34.2238 0.308386 34 0.688864 34H30.3111C30.6916 34 31 34.2238 31 34.5C31 34.7762 30.6916 35 30.3111 35H0.688864ZM30.3 36C30.6866 36 31 36.2238 31 36.5C31 36.7762 30.6866 37 30.3 37H10.7C10.3134 37 10 36.7762 10 36.5C10 36.2238 10.3134 36 10.7 36H30.3ZM9.5 26C8.11929 26 7 24.8807 7 23.5C7 22.1193 8.11929 21 9.5 21C10.8807 21 12 22.1193 12 23.5C12 24.8807 10.8807 26 9.5 26ZM36 29C35.4477 29 35 28.5523 35 28C35 27.4477 35.4477 27 36 27C36.5523 27 37 27.4477 37 28C37 28.5523 36.5523 29 36 29ZM22.3399 5.77578C21.3683 5.27386 20.8299 4.04816 21.0483 2.83555C21.2668 1.62295 22.1828 0.753596 23.2454 0.750168C23.4656 0.749817 23.6847 0.786736 23.8958 0.859694C24.7313 -0.0127321 25.9242 -0.242859 26.9563 0.269257C27.9883 0.781374 28.6732 1.94326 28.7134 3.25027C29.5002 3.68539 30.0012 4.61047 30 5.62582C30 6.0401 29.712 6.37589 29.3567 6.37589C29.0014 6.37589 28.7135 6.0401 28.7135 5.62582C28.7153 5.0825 28.3827 4.61583 27.9242 4.5187C27.752 4.48248 27.5998 4.36601 27.5028 4.19619C27.4057 4.02618 27.3723 3.81733 27.4102 3.61788C27.4232 3.53806 27.4289 3.45684 27.4269 3.37562C27.4269 2.87827 27.2575 2.40123 26.9559 2.04962C26.6543 1.69801 26.2452 1.50041 25.8187 1.50041C25.3285 1.49927 24.8652 1.76227 24.5637 2.21303C24.3654 2.51251 24.0069 2.59294 23.7274 2.40053C23.5815 2.30041 23.4149 2.24854 23.2456 2.25048C22.7127 2.25048 22.2807 2.75424 22.2807 3.37562C22.2807 3.997 22.7127 4.50077 23.2456 4.50077C23.4879 4.50208 23.709 4.66198 23.8177 4.91443C23.9264 5.16697 23.9042 5.46927 23.7603 5.6965C23.6351 5.89304 23.5675 6.13126 23.5673 6.37606C23.5673 6.99744 23.9993 7.50121 24.5322 7.50121C25.0651 7.50121 25.4972 6.99744 25.4972 6.37606C25.4973 6.29985 25.4899 6.22382 25.4753 6.14954C25.4201 5.8708 25.4987 5.57906 25.6807 5.38726C25.8626 5.19545 26.1194 5.13357 26.3517 5.22569C26.5839 5.31773 26.7552 5.54935 26.7992 5.83072C26.8824 6.36534 27.2826 6.75325 27.7487 6.75105C28.104 6.75105 28.3919 7.08693 28.3919 7.50112C28.3919 7.91531 28.104 8.25119 27.7487 8.25119C27.2802 8.25189 26.8233 8.08224 26.4415 7.76588C25.9093 8.75882 24.8774 9.22075 23.9121 8.89823C22.9468 8.57572 22.2813 7.54683 22.2807 6.37589C22.2803 6.1738 22.3002 5.97242 22.3399 5.77578Z" fill="url(#paint0_linear)"/>
<defs>
<linearGradient id="paint0_linear" x1="41" y1="0" x2="0" y2="0" gradientUnits="userSpaceOnUse">
<stop stop-color="#31A14A"/>
<stop offset="1" stop-color="#147939"/>
</linearGradient>
</defs>
</svg>
