<svg width="16" height="16" viewBox="0 0 16 16" fill="none" xmlns="http://www.w3.org/2000/svg">
<path fill-rule="evenodd" clip-rule="evenodd" d="M12.0387 9.91342L15.5597 13.4343C16.1468 14.0212 16.1468 14.9728 15.5597 15.5598C14.9727 16.1467 14.0221 16.1467 13.4351 15.5598L9.91304 12.0389C8.92133 12.651 7.76334 13.0216 6.51119 13.0216C2.91501 13.0216 0 10.1067 0 6.51078C0 2.91483 2.91501 0 6.51119 0C10.1074 0 13.0224 2.91483 13.0224 6.51078C13.0224 7.76286 12.6517 8.92077 12.0387 9.91342ZM2.51119 6.51078C2.51119 8.71967 4.3023 10.5108 6.51119 10.5108C8.72008 10.5108 10.5112 8.71967 10.5112 6.51078C10.5112 4.30189 8.72008 2.51078 6.51119 2.51078C4.3023 2.51078 2.51119 4.30189 2.51119 6.51078Z" fill="white"/>
</svg>
