<svg width="41" height="37" viewBox="0 0 41 37" fill="none" xmlns="http://www.w3.org/2000/svg"><path d="M0 32.308c0-.383.306-.693.683-.693H4.64c-3.574-2.178-5.343-6.45-4.373-10.56.97-4.109 4.457-7.108 8.616-7.412v-1.412H7.517a.688.688 0 0 1-.684-.692c0-.383.306-.693.684-.693h3.416c.301 0 .602.013.902.039h.007l-.53-2.44a.698.698 0 0 1 .205-.662.677.677 0 0 1 .668-.15c.233.076.409.271.46.513l.646 2.963a10.824 10.824 0 0 1 4.599 2.271c.797.67 1.498 1.447 2.084 2.312h2.576v-2.077c0-.382.306-.692.683-.692h8.884V7.385H30.75a.688.688 0 0 1-.683-.693c0-.382.306-.692.683-.692h2.05c.377 0 .683.31.683.692v6.231h4.1a1.38 1.38 0 0 1 1.367 1.385v9.872a4.85 4.85 0 0 1 2.034 3.573 4.872 4.872 0 0 1-1.426 3.862h.759c.377 0 .683.31.683.693a.688.688 0 0 1-.683.692H.683A.688.688 0 0 1 0 32.308zm32.8-9.693c.377 0 .683-.31.683-.692a.688.688 0 0 0-.683-.692h-6.15a.688.688 0 0 0-.683.692c0 .382.306.692.683.692h6.15zm0-2.769c.377 0 .683-.31.683-.692a.688.688 0 0 0-.683-.692h-6.15a.688.688 0 0 0-.683.692c0 .382.306.692.683.692h6.15zm5.467 8.308c0-1.147-.918-2.077-2.05-2.077-1.133 0-2.05.93-2.05 2.077 0 1.147.917 2.077 2.05 2.077 1.13-.004 2.046-.932 2.05-2.077zm-14.35-11.77a.688.688 0 0 1-.684.693h12.3c.378 0 .684-.31.684-.692a.688.688 0 0 0-.684-.693H23.917v.693zm-4.319.693a.667.667 0 0 1-.547-.284 9.776 9.776 0 0 1 1.45 5.13c0 .382.305.692.682.692.378 0 .684-.31.684-.692a11.154 11.154 0 0 0-1.1-4.846h-1.169zm-.683 8.308a9.749 9.749 0 0 1-4.421 6.23h18.381a4.879 4.879 0 0 1-.58-6.23h-13.38zm-5.248-2.077c0-2.294-1.836-4.154-4.1-4.154-2.265 0-4.1 1.86-4.1 4.154 0 2.294 1.835 4.154 4.1 4.154 2.264 0 4.1-1.86 4.1-4.154zm-10.934 0c0 .382.306.692.684.692.377 0 .683-.31.683-.692.004-3.057 2.45-5.535 5.467-5.539.377 0 .683-.31.683-.692a.688.688 0 0 0-.683-.692c-3.772.006-6.828 3.102-6.834 6.923zm1.722 4.154c.137.001.27-.04.383-.118a.7.7 0 0 0 .184-.962 5.998 5.998 0 0 1-.355-.617.68.68 0 0 0-.916-.311.71.71 0 0 0-.307.934c.132.266.28.522.444.769a.69.69 0 0 0 .567.305zM40.308 34c.382 0 .692.224.692.5s-.31.5-.692.5h-7.616c-.382 0-.692-.224-.692-.5s.31-.5.692-.5h7.616zM.688 35C.309 35 0 34.776 0 34.5s.308-.5.689-.5H30.31c.38 0 .689.224.689.5s-.308.5-.689.5H.69zM30.3 36c.387 0 .7.224.7.5s-.313.5-.7.5H10.7c-.387 0-.7-.224-.7-.5s.313-.5.7-.5h19.6zM9.5 26a2.5 2.5 0 1 1 0-5 2.5 2.5 0 0 1 0 5zM36 29a1 1 0 1 1 0-2 1 1 0 0 1 0 2zM22.34 5.776c-.972-.502-1.51-1.728-1.292-2.94.219-1.213 1.135-2.082 2.197-2.086.22 0 .44.037.65.11.836-.873 2.03-1.103 3.061-.59 1.032.511 1.717 1.673 1.757 2.98.787.435 1.288 1.36 1.287 2.376 0 .414-.288.75-.643.75-.356 0-.643-.336-.643-.75.001-.544-.331-1.01-.79-1.107a.646.646 0 0 1-.421-.323.855.855 0 0 1-.093-.578 2.044 2.044 0 0 0-.454-1.568c-.302-.352-.71-.55-1.137-.55-.49 0-.954.262-1.255.713-.199.3-.557.38-.837.188a.832.832 0 0 0-.481-.15c-.533 0-.965.503-.965 1.125 0 .621.432 1.125.965 1.125.242.001.463.161.572.413a.855.855 0 0 1-.058.783 1.272 1.272 0 0 0-.193.68c0 .62.432 1.124.965 1.124.533 0 .965-.504.965-1.125 0-.076-.007-.152-.022-.226a.872.872 0 0 1 .206-.763.605.605 0 0 1 .67-.161c.233.092.404.323.448.605.083.534.484.922.95.92.355 0 .643.336.643.75s-.288.75-.643.75a2.04 2.04 0 0 1-1.307-.485c-.533.993-1.565 1.455-2.53 1.132-.965-.322-1.63-1.351-1.631-2.522 0-.202.02-.404.059-.6z" fill="url(#a)"/><defs><linearGradient id="a" x1="41" x2="0" gradientUnits="userSpaceOnUse"><stop stop-color="#31A14A"/><stop offset="1" stop-color="#147939"/></linearGradient></defs></svg>