<svg width="207" height="37" viewBox="0 0 207 37" fill="none" xmlns="http://www.w3.org/2000/svg"><path fill="#F2F2F2" d="M0 0h207v37H0z"/><path fill="#fff" d="M-321-17h1920v2922H-321z"/><path fill="#fff" d="M-321-17h1920v70H-321z"/><path d="M54.852 12.588V9.545h14.335v3.043h-5.343V27h-3.648V12.588h-5.344zM68.657 27V13.91h3.52v2.283h.136c.477-1.62 1.679-2.471 3.145-2.471.366 0 .818.05 1.142.127v3.222c-.341-.11-1.031-.196-1.534-.196-1.602 0-2.779 1.108-2.779 2.719V27h-3.63zm11.708.247c-2.497 0-4.347-1.312-4.347-3.903 0-2.924 2.327-3.793 4.918-4.032 2.275-.221 3.17-.332 3.17-1.176v-.05c0-1.075-.707-1.697-1.943-1.697-1.304 0-2.08.64-2.326 1.509l-3.359-.273c.503-2.386 2.566-3.886 5.702-3.886 2.915 0 5.557 1.312 5.557 4.431V27h-3.443v-1.815h-.102c-.64 1.218-1.892 2.062-3.827 2.062zm1.04-2.506c1.593 0 2.727-1.048 2.727-2.42v-1.39c-.435.29-1.73.478-2.523.589-1.278.179-2.122.682-2.122 1.704 0 .998.801 1.517 1.918 1.517zm13.6 2.515c-4.031 0-6.443-2.77-6.443-6.75 0-4.015 2.454-6.767 6.426-6.767 3.417 0 5.71 1.985 5.863 5.011h-3.426c-.196-1.304-1.048-2.182-2.377-2.182-1.688 0-2.796 1.415-2.796 3.887 0 2.505 1.1 3.929 2.796 3.929 1.244 0 2.164-.785 2.377-2.182h3.426c-.17 3.008-2.36 5.054-5.846 5.054zm13.677-13.347v2.727h-2.463v6.341c0 1.006.503 1.279 1.227 1.279.341 0 .724-.085.903-.12l.571 2.702a7.057 7.057 0 0 1-1.968.341c-2.634.11-4.381-1.16-4.364-3.724v-6.819h-1.79V13.91h1.79v-3.136h3.631v3.136h2.463zm6.671 13.347c-3.972 0-6.443-2.72-6.443-6.75 0-4.057 2.471-6.767 6.443-6.767 3.972 0 6.443 2.71 6.443 6.767 0 4.03-2.471 6.75-6.443 6.75zm.017-2.813c1.798 0 2.736-1.679 2.736-3.963s-.938-3.971-2.736-3.971c-1.832 0-2.77 1.687-2.77 3.971s.938 3.963 2.77 3.963zM122.697 27V13.91h3.52v2.283h.137c.477-1.62 1.679-2.471 3.145-2.471.366 0 .818.05 1.142.127v3.222c-.341-.11-1.032-.196-1.534-.196-1.603 0-2.779 1.108-2.779 2.719V27h-3.631z" fill="#000"/><path d="M142.295 13.91v2.726h-2.599V27h-3.631V16.636h-1.849V13.91h1.849v-.946c0-2.846 1.833-4.236 4.296-4.236 1.116 0 2.113.222 2.565.358l-.639 2.727a4.034 4.034 0 0 0-1.168-.187c-1.065 0-1.423.52-1.423 1.406v.878h2.599zm6.203 13.346c-3.972 0-6.443-2.72-6.443-6.75 0-4.057 2.471-6.767 6.443-6.767 3.971 0 6.443 2.71 6.443 6.767 0 4.03-2.472 6.75-6.443 6.75zm.017-2.813c1.798 0 2.736-1.679 2.736-3.963s-.938-3.971-2.736-3.971c-1.833 0-2.77 1.687-2.77 3.971s.937 3.963 2.77 3.963zM155.842 27V13.91h3.52v2.283h.137c.477-1.62 1.679-2.471 3.144-2.471.367 0 .819.05 1.142.127v3.222c-.34-.11-1.031-.196-1.534-.196-1.602 0-2.778 1.108-2.778 2.719V27h-3.631zm16.07-7.568V27h-3.631V9.545h3.529v6.674h.153c.597-1.543 1.926-2.48 3.912-2.48 2.727 0 4.534 1.858 4.526 4.926V27h-3.631v-7.688c.008-1.61-.861-2.556-2.335-2.556-1.483 0-2.514.988-2.523 2.676zM181.796 27V13.91h3.631V27h-3.631zm1.824-14.778c-1.074 0-1.96-.827-1.96-1.841 0-1.006.886-1.833 1.96-1.833 1.083 0 1.969.827 1.969 1.833 0 1.014-.886 1.84-1.969 1.84zM186.857 27V13.91h3.52v2.283h.136c.477-1.62 1.679-2.471 3.145-2.471.366 0 .818.05 1.142.127v3.222c-.341-.11-1.031-.196-1.534-.196-1.603 0-2.779 1.108-2.779 2.719V27h-3.63zm13.694.256c-4.032 0-6.495-2.591-6.495-6.742 0-4.04 2.497-6.775 6.35-6.775 3.46 0 6.153 2.198 6.153 6.647v.998h-8.915v.008c0 1.952 1.151 3.154 2.966 3.154 1.211 0 2.148-.52 2.514-1.518l3.358.222c-.511 2.429-2.693 4.006-5.931 4.006zm-2.907-8.122h5.498c-.009-1.56-1.1-2.685-2.677-2.685-1.61 0-2.744 1.193-2.821 2.684z" fill="#31A14A"/><path d="M0 32.308c0-.383.306-.693.683-.693H4.64c-3.574-2.178-5.343-6.45-4.373-10.56.97-4.109 4.457-7.108 8.616-7.412v-1.412H7.517a.688.688 0 0 1-.684-.692c0-.383.306-.693.684-.693h3.416c.301 0 .602.013.902.039h.007l-.53-2.44a.698.698 0 0 1 .205-.662.677.677 0 0 1 .668-.15c.233.076.409.271.46.513l.646 2.963a10.824 10.824 0 0 1 4.599 2.271c.797.67 1.498 1.447 2.084 2.312h2.576v-2.077c0-.382.306-.692.683-.692h8.884V7.385H30.75a.688.688 0 0 1-.683-.693c0-.382.306-.692.683-.692h2.05c.377 0 .683.31.683.692v6.231h4.1a1.38 1.38 0 0 1 1.367 1.385v9.872a4.85 4.85 0 0 1 2.034 3.573 4.872 4.872 0 0 1-1.426 3.862h.759c.377 0 .683.31.683.693a.688.688 0 0 1-.683.692H.683A.688.688 0 0 1 0 32.308zm32.8-9.693c.377 0 .683-.31.683-.692a.688.688 0 0 0-.683-.692h-6.15a.688.688 0 0 0-.683.692c0 .382.306.692.683.692h6.15zm0-2.769c.377 0 .683-.31.683-.692a.688.688 0 0 0-.683-.692h-6.15a.688.688 0 0 0-.683.692c0 .382.306.692.683.692h6.15zm5.467 8.308c0-1.147-.918-2.077-2.05-2.077-1.133 0-2.05.93-2.05 2.077 0 1.147.917 2.077 2.05 2.077 1.13-.004 2.046-.932 2.05-2.077zm-14.35-11.77a.688.688 0 0 1-.684.693h12.3c.378 0 .684-.31.684-.692a.688.688 0 0 0-.684-.693H23.917v.693zm-4.319.693a.667.667 0 0 1-.547-.284 9.776 9.776 0 0 1 1.45 5.13c0 .382.305.692.682.692.378 0 .684-.31.684-.692a11.154 11.154 0 0 0-1.1-4.846h-1.169zm-.683 8.308a9.749 9.749 0 0 1-4.421 6.23h18.381a4.879 4.879 0 0 1-.58-6.23h-13.38zm-5.248-2.077c0-2.294-1.836-4.154-4.1-4.154-2.265 0-4.1 1.86-4.1 4.154 0 2.294 1.835 4.154 4.1 4.154 2.264 0 4.1-1.86 4.1-4.154zm-10.934 0c0 .382.306.692.684.692.377 0 .683-.31.683-.692.004-3.057 2.45-5.535 5.467-5.539.377 0 .683-.31.683-.692a.688.688 0 0 0-.683-.692c-3.772.006-6.828 3.102-6.834 6.923zm1.722 4.154c.137.001.27-.04.383-.118a.7.7 0 0 0 .184-.962 5.998 5.998 0 0 1-.355-.617.68.68 0 0 0-.916-.311.71.71 0 0 0-.307.934c.132.266.28.522.444.769a.69.69 0 0 0 .567.305zM40.308 34c.382 0 .692.224.692.5s-.31.5-.692.5h-7.616c-.382 0-.692-.224-.692-.5s.31-.5.692-.5h7.616zM.688 35C.309 35 0 34.776 0 34.5s.308-.5.689-.5H30.31c.38 0 .689.224.689.5s-.308.5-.689.5H.69zM30.3 36c.387 0 .7.224.7.5s-.313.5-.7.5H10.7c-.387 0-.7-.224-.7-.5s.313-.5.7-.5h19.6zM9.5 26a2.5 2.5 0 1 1 0-5 2.5 2.5 0 0 1 0 5zM36 29a1 1 0 1 1 0-2 1 1 0 0 1 0 2zM22.34 5.776c-.972-.502-1.51-1.728-1.292-2.94.219-1.213 1.135-2.082 2.197-2.086.22 0 .44.037.65.11.836-.873 2.03-1.103 3.061-.59 1.032.511 1.717 1.673 1.757 2.98.787.435 1.288 1.36 1.287 2.376 0 .414-.288.75-.643.75-.356 0-.643-.336-.643-.75.001-.544-.331-1.01-.79-1.107a.646.646 0 0 1-.421-.323.855.855 0 0 1-.093-.578 2.044 2.044 0 0 0-.454-1.568c-.302-.352-.71-.55-1.137-.55-.49 0-.954.262-1.255.713-.199.3-.557.38-.837.188a.832.832 0 0 0-.481-.15c-.533 0-.965.503-.965 1.125 0 .621.432 1.125.965 1.125.242.001.463.161.572.413a.855.855 0 0 1-.058.783 1.272 1.272 0 0 0-.193.68c0 .62.432 1.124.965 1.124.533 0 .965-.504.965-1.125 0-.076-.007-.152-.022-.226a.872.872 0 0 1 .206-.763.605.605 0 0 1 .67-.161c.233.092.404.323.448.605.083.534.484.922.95.92.355 0 .643.336.643.75s-.288.75-.643.75a2.04 2.04 0 0 1-1.307-.485c-.533.993-1.565 1.455-2.53 1.132-.965-.322-1.63-1.351-1.631-2.522 0-.202.02-.404.059-.6z" fill="url(#a)"/><defs><linearGradient id="a" x1="41" x2="0" gradientUnits="userSpaceOnUse"><stop stop-color="#31A14A"/><stop offset="1" stop-color="#147939"/></linearGradient></defs></svg>