<svg width="369" height="45" viewBox="0 0 369 45" fill="none" xmlns="http://www.w3.org/2000/svg"><path fill-rule="evenodd" clip-rule="evenodd" d="M187.495 17.893c-1.596 3.287-4.427 5.139-8.379 5.547 1.565.962 4.033 2.902 2.041 7.753 0 .056-2.42 6.036-3.226 7.928a23.17 23.17 0 0 0-1.266 4.185H166.23s1.975-5.492 4.459-10.79c1.041-2.197 1.218-3.865.557-4.955a3.128 3.128 0 0 0-2.339-1.275h-5.516l-7.847 17.004h-10.29L165.746 0h19.798c1.943 0 4.5.738 5.806 2.814.871 1.403 1.484 3.912-.516 8.016-.016.049-2.032 4.386-3.339 7.063zm-13.459 1.162c1.782 0 3.121-.93 3.992-2.757l1.072-2.229 1.799-3.752c.524-1.114.637-1.972.322-2.485a1.412 1.412 0 0 0-1.064-.561h-7.855l-5.443 11.784h7.177zM78.324 17.861C76.712 21.148 73.9 23 69.95 23.416c1.563.962 4.037 2.902 2.039 7.777 0 .056-2.418 6.036-3.224 7.928a22.95 22.95 0 0 0-1.257 4.185H57.081s1.974-5.492 4.456-10.79c1.04-2.197 1.225-3.865.556-4.955a3.123 3.123 0 0 0-2.337-1.275h-5.52l-7.84 17.004H36.087L56.565 0h19.809c1.95 0 4.505.738 5.81 2.782.87 1.403 1.483 3.912-.516 8.016l-.135.29c-.476 1.02-2.099 4.496-3.21 6.773zm-13.442 1.13c1.773 0 3.11-.89 3.98-2.725l1.073-2.261 1.797-3.752c.524-1.114.636-1.972.322-2.485a1.413 1.413 0 0 0-1.064-.561h-7.688L57.71 18.99h7.172zM111.981 0c5.246 0 9.368 3.377 5.727 11.153l-3.568 7.581-.983 2.092c-2.675 5.698-5.155 10.978-7 14.8-3.087 6.412-7.022 8.66-15.013 8.58H83.17c-3.885 0-11.82-1.867-6.516-12.988L81.93 20.13a1419.7 1419.7 0 0 0 5.955-12.492C90.297 2.5 94.044 0 99.356 0h12.625zM96.749 32.395L107.338 9.92c.888-1.875-.081-2.468-1.165-2.419h-5.702c-1.4 0-2.476.439-3.51 2.63-1.524 3.214-8.97 19.205-10.745 23.02-1.222 2.654.407 2.874 1.222 2.874h4.578c2.289 0 3.258-.528 4.733-3.629z" fill="#fff"/><path d="M135.186 19.751l-3.431 7.305h5.437l-3.058 6.63c-.89 1.924-1.497 2.314-3.593 2.314h-5.405c-1.619 0-2.185-.812-1.214-2.873 1.23-2.614 10.94-22.953 10.94-22.953 1.1-2.313 1.756-2.662 3.455-2.662h5.584c1.351 0 2.079.625 1.173 2.435-.202.397-2.428 5.275-2.428 5.275l9.848.073 2.242-4.829c3.277-7.06.348-10.364-6.433-10.462h-10.698a12.944 12.944 0 0 0-12.138 7.638c-1.95 4.163-11.15 23.577-11.15 23.577-3.367 7.102-1.416 12.986 7.792 12.986h8.222c6.57.065 9.799-.966 12.801-7.556l7.663-16.841-15.609-.057zM283.293 0l-20.752 43.306h10.694L294.118 0h-10.825zM319.985 0l-23.947 38.156L308.153 0h-11.09L286.9 43.306h14.308L331.108 0h-11.123zM237.637 28.304l-.901-16.027c-.107-1.931.377-4.552 3.99-4.552h7.26L251.714 0h-12.372c-9.833 0-13.11 5.858-12.758 12.742.23 4.207.82 17.894.82 17.894.147 3.302-1.148 4.808-4.302 4.808h-8.276l-3.711 7.861h13.191c8.751.048 13.905-5.537 13.331-15.001zM261.919 12.277c-.107-1.931.379-4.552 4.011-4.552h7.298L276.975 0h-12.437c-8.171 0-13.294 4.343-12.825 12.742.239 4.207.824 17.894.824 17.894.156 3.302-1.145 4.808-4.324 4.808h-8.105l-3.732 7.862h13.048c9.669 0 13.903-6.732 13.392-15.05l-.897-15.98zM201.606 23.906h13.217l3.39-7.217h-13.264l4.22-8.998h13.691L226.452 0h-23.855l-20.352 43.306h25.772l3.713-7.851h-15.633l5.509-11.549zM314.868 43.306h25.777l3.746-7.845h-15.668l5.51-11.55h13.219l3.391-7.22h-13.267l4.221-8.999h13.694L359.076 0h-23.852l-20.356 43.306z" fill="#fff"/><path fill-rule="evenodd" clip-rule="evenodd" d="M45.658 10.979c-1.964 4.26-3.692 7.927-4.564 9.697-2.713 5.501-6.193 7.511-12.85 7.463H17.846l-7.171 15.167H0L20.535 0H40.32c4.523.016 8.785 3.483 5.338 10.979zM32.033 17.96a957.34 957.34 0 0 0 3.553-7.327c1.353-2.802.301-3.531-1.174-3.54h-6.714l-6.332 13.478h6.698c1.867 0 3.105-.801 3.969-2.61zM366.812 1.985a.896.896 0 0 1 .383.776c0 .711-.473.975-1.079.99l1.03 1.662h-.494l-.981-1.663h-.765v1.663h-.417V1.81h1.488c.289-.023.577.038.835.176zm-1.892 1.421h.64l.122.001c.464.007 1.09.015 1.109-.69 0-.556-.466-.622-.89-.622h-.981v1.311z" fill="#fff"/><path fill-rule="evenodd" clip-rule="evenodd" d="M362.926 2.848a3.158 3.158 0 1 1 5.833 2.425 3.158 3.158 0 0 1-5.833-2.425zm.168 1.198a2.777 2.777 0 0 0 2.755 2.791v.007a2.779 2.779 0 0 0 2.799-2.784 2.777 2.777 0 0 0-5.554-.014z" fill="#fff"/></svg>