<svg width="209" height="37" viewBox="0 0 209 37" fill="none" xmlns="http://www.w3.org/2000/svg"><path d="M54.852 13.588v-3.042h14.336v3.042h-5.344V28h-3.648V13.588h-5.344zM68.652 28V14.91h3.52v2.283h.137c.239-.812.636-1.426 1.193-1.84.563-.421 1.213-.631 1.952-.631.352 0 .679.042.98.127.301.086.571.202.81.35l-1.091 3a3.116 3.116 0 0 0-.563-.213 2.242 2.242 0 0 0-.673-.094c-.733 0-1.355.25-1.867.75-.505.5-.76 1.15-.767 1.952V28h-3.63zm12.18.247c-1.25 0-2.287-.326-3.111-.98-.824-.653-1.236-1.628-1.236-2.923 0-.978.23-1.745.69-2.301.46-.557 1.063-.963 1.807-1.22.75-.26 1.557-.431 2.42-.51 1.137-.114 1.95-.233 2.438-.358.489-.125.733-.398.733-.819v-.05c0-.54-.17-.958-.511-1.254-.335-.295-.813-.443-1.432-.443-.653 0-1.173.142-1.56.426a2 2 0 0 0-.767 1.083l-3.358-.273c.25-1.193.87-2.14 1.858-2.838.995-.699 2.276-1.048 3.844-1.048.972 0 1.88.153 2.727.46.847.307 1.529.787 2.046 1.44.523.648.784 1.492.784 2.532V28H84.76v-1.815h-.102c-.319.608-.796 1.105-1.432 1.491-.631.38-1.43.571-2.395.571zm1.04-2.506c.795 0 1.448-.23 1.96-.69a2.247 2.247 0 0 0 .767-1.73v-1.39c-.142.097-.364.183-.665.256-.295.074-.614.14-.954.197l-.904.136c-.636.09-1.15.27-1.542.537-.387.267-.58.656-.58 1.167 0 .5.179.878.537 1.134.364.256.824.383 1.38.383zm13.595 2.515c-1.34 0-2.494-.284-3.46-.853a5.762 5.762 0 0 1-2.216-2.386c-.511-1.017-.767-2.188-.767-3.511 0-1.341.259-2.517.776-3.529a5.761 5.761 0 0 1 2.224-2.378c.96-.573 2.102-.86 3.426-.86 1.142 0 2.142.207 3 .622.864.415 1.543.997 2.037 1.747.5.75.776 1.63.827 2.642h-3.426c-.097-.653-.352-1.179-.767-1.577-.41-.403-.946-.605-1.61-.605-.842 0-1.518.338-2.03 1.014-.51.677-.766 1.634-.766 2.872 0 1.25.252 2.22.758 2.907.511.682 1.19 1.023 2.037 1.023.625 0 1.15-.188 1.577-.563.426-.38.693-.92.8-1.62h3.427c-.057 1-.33 1.881-.818 2.643-.483.761-1.15 1.355-2.003 1.781-.852.42-1.86.63-3.026.63zm13.667-13.347v2.727h-2.463v6.341c0 .5.113.838.341 1.014.227.177.522.265.886.265.17 0 .341-.015.511-.043l.392-.077.571 2.702c-.182.057-.437.122-.767.196a6.15 6.15 0 0 1-1.201.145c-1.319.057-2.378-.227-3.179-.852-.796-.631-1.191-1.588-1.185-2.873v-6.818h-1.79V14.91h1.79v-3.136h3.631v3.136h2.463zm6.671 13.347c-1.324 0-2.469-.282-3.435-.844a5.776 5.776 0 0 1-2.224-2.37c-.523-1.016-.784-2.195-.784-3.536 0-1.353.261-2.534.784-3.546a5.708 5.708 0 0 1 2.224-2.37c.966-.567 2.111-.851 3.435-.851 1.324 0 2.466.284 3.426.852a5.69 5.69 0 0 1 2.233 2.37c.523 1.01.784 2.192.784 3.545 0 1.34-.261 2.52-.784 3.537a5.758 5.758 0 0 1-2.233 2.369c-.96.562-2.102.844-3.426.844zm.017-2.813c.898 0 1.577-.375 2.037-1.125.466-.75.699-1.696.699-2.838 0-1.142-.233-2.088-.699-2.838-.46-.756-1.139-1.133-2.037-1.133-.915 0-1.605.377-2.071 1.133-.466.75-.699 1.696-.699 2.838 0 1.142.233 2.088.699 2.838.466.75 1.156 1.125 2.071 1.125zM123.141 28V14.91h3.52v2.283h.136c.239-.812.636-1.426 1.193-1.84.563-.421 1.213-.631 1.952-.631.352 0 .679.042.98.127.301.086.571.202.81.35l-1.091 3a3.127 3.127 0 0 0-.563-.213 2.236 2.236 0 0 0-.673-.094c-.733 0-1.355.25-1.866.75-.506.5-.762 1.15-.767 1.952V28h-3.631z" fill="#fff"/><path d="M143.208 14.91v2.726h-2.6V28h-3.63V17.636h-1.85V14.91h1.85v-.946c0-1.426.406-2.489 1.218-3.187.819-.7 1.844-1.049 3.077-1.049.557 0 1.065.043 1.526.128.466.085.812.162 1.039.23l-.639 2.727a4.515 4.515 0 0 0-.528-.127c-.21-.04-.424-.06-.639-.06-.535 0-.907.125-1.117.375-.204.244-.307.588-.307 1.031v.878h2.6zm6.194 13.346c-1.324 0-2.469-.282-3.435-.844a5.77 5.77 0 0 1-2.224-2.37c-.523-1.016-.785-2.195-.785-3.536 0-1.353.262-2.534.785-3.546a5.701 5.701 0 0 1 2.224-2.37c.966-.567 2.111-.851 3.435-.851 1.324 0 2.466.284 3.426.852a5.69 5.69 0 0 1 2.233 2.37c.522 1.01.784 2.192.784 3.545 0 1.34-.262 2.52-.784 3.537a5.758 5.758 0 0 1-2.233 2.369c-.96.562-2.102.844-3.426.844zm.017-2.813c.897 0 1.576-.375 2.037-1.125.466-.75.698-1.696.698-2.838 0-1.142-.232-2.088-.698-2.838-.461-.756-1.14-1.133-2.037-1.133-.915 0-1.605.377-2.071 1.133-.466.75-.699 1.696-.699 2.838 0 1.142.233 2.088.699 2.838.466.75 1.156 1.125 2.071 1.125zM156.738 28V14.91h3.519v2.283h.137c.238-.812.636-1.426 1.193-1.84.563-.421 1.213-.631 1.952-.631.352 0 .679.042.98.127.301.086.571.202.81.35l-1.091 3a3.127 3.127 0 0 0-.563-.213 2.24 2.24 0 0 0-.673-.094c-.733 0-1.355.25-1.867.75-.505.5-.761 1.15-.767 1.952V28h-3.63zm16.538-7.568V28h-3.631V10.546h3.529v6.673h.153c.301-.773.779-1.378 1.432-1.816.659-.443 1.486-.664 2.48-.664 1.364 0 2.46.437 3.29 1.312.829.875 1.241 2.08 1.236 3.614V28h-3.631v-7.688c.006-.806-.199-1.434-.614-1.883-.409-.449-.983-.673-1.721-.673-.739 0-1.344.235-1.816.707-.465.466-.701 1.122-.707 1.969zM183.154 28V14.91h3.631V28h-3.631zm1.824-14.778c-.534 0-.995-.18-1.381-.537-.386-.364-.579-.799-.579-1.304 0-.506.193-.938.579-1.296a1.962 1.962 0 0 1 1.381-.537c.54 0 1.003.18 1.389.537.386.358.58.79.58 1.296 0 .505-.194.94-.58 1.304a1.971 1.971 0 0 1-1.389.537zM188.225 28V14.91h3.52v2.283h.136c.239-.812.637-1.426 1.193-1.84.563-.421 1.213-.631 1.952-.631.352 0 .679.042.98.127.301.086.571.202.81.35l-1.091 3a3.099 3.099 0 0 0-.563-.213 2.236 2.236 0 0 0-.673-.094c-.733 0-1.355.25-1.866.75-.506.5-.762 1.15-.767 1.952V28h-3.631zm14.178.256c-1.341 0-2.498-.273-3.469-.819a5.589 5.589 0 0 1-2.242-2.335c-.522-1.011-.784-2.207-.784-3.588 0-1.346.262-2.528.784-3.545a5.798 5.798 0 0 1 2.208-2.378c.954-.568 2.074-.852 3.358-.852 1.153 0 2.193.244 3.119.733.932.488 1.67 1.227 2.216 2.216.545.983.818 2.215.818 3.698v.998h-8.915v.008c0 .977.267 1.747.801 2.31.535.562 1.256.843 2.165.843.608 0 1.134-.127 1.577-.383.443-.256.756-.634.937-1.134l3.358.222c-.255 1.216-.903 2.188-1.943 2.915-1.04.727-2.369 1.09-3.988 1.09zm-2.907-8.122h5.497c-.005-.779-.255-1.42-.75-1.927-.494-.505-1.136-.758-1.926-.758-.806 0-1.468.261-1.985.784a2.831 2.831 0 0 0-.836 1.9z" fill="#31A14A"/><path d="M0 32.308c0-.383.306-.693.683-.693H4.64c-3.574-2.178-5.343-6.45-4.373-10.56.97-4.109 4.457-7.108 8.616-7.412v-1.412H7.517a.688.688 0 0 1-.684-.692c0-.383.306-.693.684-.693h3.416c.301 0 .602.013.902.039h.007l-.53-2.44a.698.698 0 0 1 .205-.662.677.677 0 0 1 .668-.15c.233.076.409.271.46.513l.646 2.963a10.824 10.824 0 0 1 4.599 2.271c.797.67 1.498 1.447 2.084 2.312h2.576v-2.077c0-.382.306-.692.683-.692h8.884V7.385H30.75a.688.688 0 0 1-.683-.693c0-.382.306-.692.683-.692h2.05c.377 0 .683.31.683.692v6.231h4.1a1.38 1.38 0 0 1 1.367 1.385v9.872a4.85 4.85 0 0 1 2.034 3.573 4.872 4.872 0 0 1-1.426 3.862h.759c.377 0 .683.31.683.693a.688.688 0 0 1-.683.692H.683A.688.688 0 0 1 0 32.308zm32.8-9.693c.377 0 .683-.31.683-.692a.688.688 0 0 0-.683-.692h-6.15a.688.688 0 0 0-.683.692c0 .382.306.692.683.692h6.15zm0-2.769c.377 0 .683-.31.683-.692a.688.688 0 0 0-.683-.692h-6.15a.688.688 0 0 0-.683.692c0 .382.306.692.683.692h6.15zm5.467 8.308c0-1.147-.918-2.077-2.05-2.077-1.133 0-2.05.93-2.05 2.077 0 1.147.917 2.077 2.05 2.077 1.13-.004 2.046-.932 2.05-2.077zm-14.35-11.77a.688.688 0 0 1-.684.693h12.3c.378 0 .684-.31.684-.692a.688.688 0 0 0-.684-.693H23.917v.693zm-4.319.693a.667.667 0 0 1-.547-.284 9.776 9.776 0 0 1 1.45 5.13c0 .382.305.692.682.692.378 0 .684-.31.684-.692a11.154 11.154 0 0 0-1.1-4.846h-1.169zm-.683 8.308a9.749 9.749 0 0 1-4.421 6.23h18.381a4.879 4.879 0 0 1-.58-6.23h-13.38zm-5.248-2.077c0-2.294-1.836-4.154-4.1-4.154-2.265 0-4.1 1.86-4.1 4.154 0 2.294 1.835 4.154 4.1 4.154 2.264 0 4.1-1.86 4.1-4.154zm-10.934 0c0 .382.306.692.684.692.377 0 .683-.31.683-.692.004-3.057 2.45-5.535 5.467-5.539.377 0 .683-.31.683-.692a.688.688 0 0 0-.683-.692c-3.772.006-6.828 3.102-6.834 6.923zm1.722 4.154c.137.001.27-.04.383-.118a.7.7 0 0 0 .184-.962 5.998 5.998 0 0 1-.355-.617.68.68 0 0 0-.916-.311.71.71 0 0 0-.307.934c.132.266.28.522.444.769a.69.69 0 0 0 .567.305zM40.308 34c.382 0 .692.224.692.5s-.31.5-.692.5h-7.616c-.382 0-.692-.224-.692-.5s.31-.5.692-.5h7.616zM.688 35C.309 35 0 34.776 0 34.5s.308-.5.689-.5H30.31c.38 0 .689.224.689.5s-.308.5-.689.5H.69zM30.3 36c.387 0 .7.224.7.5s-.313.5-.7.5H10.7c-.387 0-.7-.224-.7-.5s.313-.5.7-.5h19.6zM9.5 26a2.5 2.5 0 1 1 0-5 2.5 2.5 0 0 1 0 5zM36 29a1 1 0 1 1 0-2 1 1 0 0 1 0 2zM22.34 5.776c-.972-.502-1.51-1.728-1.292-2.94.219-1.213 1.135-2.082 2.197-2.086.22 0 .44.037.65.11.836-.873 2.03-1.103 3.061-.59 1.032.511 1.717 1.673 1.757 2.98.787.435 1.288 1.36 1.287 2.376 0 .414-.288.75-.643.75-.356 0-.643-.336-.643-.75.001-.544-.331-1.01-.79-1.107a.646.646 0 0 1-.421-.323.855.855 0 0 1-.093-.578 2.044 2.044 0 0 0-.454-1.568c-.302-.352-.71-.55-1.137-.55-.49 0-.954.262-1.255.713-.199.3-.557.38-.837.188a.832.832 0 0 0-.481-.15c-.533 0-.965.503-.965 1.125 0 .621.432 1.125.965 1.125.242.001.463.161.572.413a.855.855 0 0 1-.058.783 1.272 1.272 0 0 0-.193.68c0 .62.432 1.124.965 1.124.533 0 .965-.504.965-1.125 0-.076-.007-.152-.022-.226a.872.872 0 0 1 .206-.763.605.605 0 0 1 .67-.161c.233.092.404.323.448.605.083.534.484.922.95.92.355 0 .643.336.643.75s-.288.75-.643.75a2.04 2.04 0 0 1-1.307-.485c-.533.993-1.565 1.455-2.53 1.132-.965-.322-1.63-1.351-1.631-2.522 0-.202.02-.404.059-.6z" fill="url(#a)"/><defs><linearGradient id="a" x1="41" x2="0" gradientUnits="userSpaceOnUse"><stop stop-color="#31A14A"/><stop offset="1" stop-color="#147939"/></linearGradient></defs></svg>